<?xml version="1.0" encoding="iso-8859-1"?>
<!-- Uploaded to: SVG Repo, www.svgrepo.com, Generator: SVG Repo Mixer Tools -->
<svg height="800px" width="800px" version="1.1" id="Layer_1" xmlns="http://www.w3.org/2000/svg" xmlns:xlink="http://www.w3.org/1999/xlink" 
	 viewBox="0 0 512 512" xml:space="preserve">
<path style="fill:#0089D3;" d="M256,0l-28.188,52.419L256,95.356c52.964,0,96.052,43.089,96.052,96.052S308.964,287.46,256,287.46
	l-20.897,106.244L256,512c16.828,0,33.657-6.543,46.313-19.628c56.647-58.569,145.094-170.85,145.094-300.963
	C447.407,85.696,361.712,0,256,0z"/>
<path style="fill:#63C8EE;" d="M159.948,191.408c0-52.962,43.088-96.052,96.052-96.052V0C150.288,0,64.593,85.696,64.593,191.407
	c0,130.114,88.447,242.394,145.094,300.963c12.656,13.086,29.485,19.628,46.313,19.628V287.46
	C203.036,287.46,159.948,244.371,159.948,191.408z"/>
</svg>