<?xml version="1.0" encoding="UTF-8" standalone="no"?> <svg xmlns="http://www.w3.org/2000/svg" viewBox="0 0 512 512"><g id="flat"><path d="M441.044,488h-96a283.964,283.964,0,0,1-18.754-85.2l-5.246-83.941v-40h144v40L459.8,402.8A283.964,283.964,0,0,1,441.044,488Z" style="fill:#63aad1"/><path d="M432,488H336a283.964,283.964,0,0,1-18.754-85.2L312,318.856v-40H456v40L450.754,402.8A283.964,283.964,0,0,1,432,488Z" style="fill:#6cbae5"/><path d="M465.044,278.856h-144l8-21.333,2.8-14.933a34,34,0,0,1,33.418-27.734h55.565a34,34,0,0,1,33.417,27.734l2.8,14.933Z" style="fill:#63aad1"/><path d="M456,278.856H312l8-21.333,2.8-14.933a34,34,0,0,1,33.417-27.734h55.566A34,34,0,0,1,445.2,242.59l2.8,14.933Z" style="fill:#6cbae5"/><path d="M416,214.856H368v-20a12,12,0,0,1,12-12h24a12,12,0,0,1,12,12Z" style="fill:#4799cf"/><rect x="321.044" y="278.856" width="144" height="40" style="fill:#418bbd"/><rect x="312" y="278.856" width="144" height="40" style="fill:#4799cf"/><path d="M417.048,464a8.007,8.007,0,0,1-7.7-10.2l2.69-9.415a8,8,0,0,1,15.385,4.4l-2.691,9.415A8,8,0,0,1,417.048,464Z" style="fill:#76ccfb"/><path d="M427,424a8.086,8.086,0,0,1-1.5-.141,8,8,0,0,1-6.37-9.35,338.691,338.691,0,0,0,5.917-62.959,8,8,0,0,1,16,0,354.884,354.884,0,0,1-6.2,65.939A8,8,0,0,1,427,424Z" style="fill:#76ccfb"/><path d="M184,488H72l27.38-16.43A25.985,25.985,0,0,0,112,449.28V328h32V449.28a25.985,25.985,0,0,0,12.62,22.29Z" style="fill:#cbcbcb"/><path d="M174,488H72l27.38-16.43A25.985,25.985,0,0,0,112,449.28V328h22V449.28a25.985,25.985,0,0,0,12.62,22.29Z" style="fill:#dbdbdb"/><path d="M216,224l-19.2,32-44.57,74.28A28.259,28.259,0,0,1,128,344a27.876,27.876,0,0,1-5.5-.54,28.285,28.285,0,0,1-18.73-13.18L59.2,256,40,224Z" style="fill:#dbdbdb"/><path d="M205,224l-19.2,32-44.57,74.28a28.285,28.285,0,0,1-18.73,13.18,28.285,28.285,0,0,1-18.73-13.18L59.2,256,40,224Z" style="fill:#ebebeb"/><path d="M337.7,488H237.89a20.007,20.007,0,0,1-19.9-21.99l7.6-75.91a573.827,573.827,0,0,0-1.09-124.08l-5.49-46.69a50.018,50.018,0,0,1,18.15-44.67l22-17.86a15.98,15.98,0,0,0,5.92-12.42V56h47.96v88.73a16,16,0,0,0,5.48,12.05l20.46,17.88a49.988,49.988,0,0,1,17.65,44.25l-5.54,47.11A573.827,573.827,0,0,0,350,390.1l7.6,75.91A20.007,20.007,0,0,1,337.7,488Z" style="fill:#6b9777"/><path d="M327.8,488H237.89a20.007,20.007,0,0,1-19.9-21.99l7.6-75.91a573.827,573.827,0,0,0-1.09-124.08l-5.49-46.69a50.018,50.018,0,0,1,18.15-44.67l22-17.86a15.98,15.98,0,0,0,5.92-12.42V56h38.07v88.73a16,16,0,0,0,5.48,12.05l20.46,17.88a50.014,50.014,0,0,1,17.65,44.25l-5.55,47.11a573.826,573.826,0,0,0-1.08,124.08l7.59,75.91A20,20,0,0,1,327.8,488Z" style="fill:#85bc94"/><rect x="258.214" y="24" width="61.581" height="32" style="fill:#6b9777"/><rect x="304" y="24" width="15.795" height="32" style="fill:#5e8569"/><path d="M319.8,420.061h0a131.952,131.952,0,0,1-64,0h0v-168h0a131.927,131.927,0,0,1,64,0h0Z" style="fill:#ebebeb"/><circle cx="287.795" cy="252.061" r="32" style="fill:#dc4d41"/><rect x="265.044" y="56" width="48" height="48" style="fill:#fbb540"/><rect x="304" y="56" width="9.044" height="48" style="fill:#ea9d2d"/><path d="M289.044,464h-24a8,8,0,0,1,0-16h24a8,8,0,0,1,0,16Z" style="fill:#9ddeaf"/><path d="M321.044,464h-8a8,8,0,0,1,0-16h8a8,8,0,0,1,0,16Z" style="fill:#9ddeaf"/><path d="M196.8,256l-44.57,74.28A28.259,28.259,0,0,1,128,344a27.423,27.423,0,0,1-5.6-.57,28.229,28.229,0,0,1-18.63-13.15L59.2,256Z" style="fill:#ea9d2d"/><path d="M185.6,256l-44.57,74.28a28.229,28.229,0,0,1-18.63,13.15,28.229,28.229,0,0,1-18.63-13.15L59.2,256Z" style="fill:#fbb540"/><path d="M108.1,306.857a8,8,0,0,1-6.687-12.38L194.35,152.433a8,8,0,1,1,13.388,8.759L114.806,303.236A7.992,7.992,0,0,1,108.1,306.857Z" style="fill:#744630"/><circle cx="156.665" cy="222.406" r="24" style="fill:#dc4d41"/><circle cx="131.306" cy="259.888" r="24" style="fill:#5e8569"/></g></svg>