<?xml version="1.0" encoding="iso-8859-1"?>
<!-- Uploaded to: SVG Repo, www.svgrepo.com, Generator: SVG Repo Mixer Tools -->
<svg height="800px" width="800px" version="1.1" id="Layer_1" xmlns="http://www.w3.org/2000/svg" xmlns:xlink="http://www.w3.org/1999/xlink" 
	 viewBox="0 0 512 512" xml:space="preserve">
<path style="fill:#234848;" d="M347.897,285.272c0,93.196-75.92,168.746-169.573,168.746S8.752,378.468,8.752,285.272
	s75.92-168.746,169.573-168.746S347.897,192.076,347.897,285.272z"/>
<path style="fill:#FFFFFF;" d="M150.334,201.04c36.091-6.693,74.733,13.575,97.947,33.486
	c23.218,19.909,31.009,39.462,30.195,50.727c-0.814,11.265-10.233,14.243-20.213,30.823c-9.985,16.578-20.533,46.754-38.581,63.854
	c-18.05,17.101-43.6,21.124-65.559,13.819c-21.954-7.304-40.317-25.936-57.543-47.608c-17.23-21.67-33.323-46.381-24.6-75.564
	C80.706,241.394,114.244,207.735,150.334,201.04L150.334,201.04z"/>
<path style="fill:#F49919;" d="M124.871,275.69c0-17.647,14.368-31.954,32.088-31.954c17.725,0,32.088,14.308,32.088,31.954
	c0,17.65-14.362,31.953-32.088,31.953C139.239,307.643,124.871,293.339,124.871,275.69L124.871,275.69z"/>
<path style="fill:#FFEE5E;" d="M140.034,269.519c0-8.622,7.019-15.613,15.677-15.613c8.66,0,15.677,6.991,15.677,15.613
	c0,8.623-7.017,15.612-15.677,15.612C147.053,285.13,140.034,278.142,140.034,269.519L140.034,269.519z"/>
<path d="M504.42,276.563H356.433c-4.337-88.89-74.673-160.814-163.16-168.159c-1.675-4.965-3.875-9.561-6.524-13.493
	c-6.372-9.464-9.133-23.657-6.87-35.317c0.916-4.723-2.189-9.29-6.934-10.203c-4.744-0.911-9.336,2.178-10.253,6.9
	c-3.127,16.119,0.607,35.083,9.515,48.314c0.689,1.023,1.324,2.104,1.915,3.221c-9.865,0.229-19.53,1.266-28.94,3.034
	c-1.745-5.907-4.223-11.376-7.304-15.952c-6.37-9.46-9.132-23.653-6.872-35.317c0.916-4.723-2.189-9.29-6.936-10.202
	c-4.747-0.911-9.336,2.179-10.251,6.902c-3.126,16.124,0.61,35.087,9.517,48.312c2.059,3.058,3.681,6.578,4.865,10.318
	C54.198,136.532,0,204.716,0,285.272C0,383.145,79.997,462.77,178.325,462.77c95.395,0,173.53-74.946,178.108-168.788H504.42
	c4.187,0,7.58-3.899,7.58-8.709C512,280.462,508.606,276.563,504.42,276.563z M178.325,445.266
	c-88.677,0-160.821-71.773-160.821-159.993c0-71.678,47.625-132.499,113.047-152.787c-0.298,7.997-2.495,15.376-6.633,19.971
	c-3.227,3.582-2.924,9.088,0.674,12.299c1.672,1.491,3.759,2.224,5.84,2.224c2.4,0,4.791-0.977,6.519-2.896
	c8.345-9.263,11.609-22.643,11.073-35.943c9.818-1.87,19.944-2.861,30.301-2.861c0.289,0,0.577,0.01,0.865,0.011
	c1.073,10.592-1.036,21.216-6.397,27.171c-3.225,3.583-2.921,9.089,0.679,12.299c1.671,1.489,3.758,2.222,5.837,2.222
	c2.401,0,4.794-0.978,6.521-2.898c8.718-9.684,11.887-23.859,10.969-37.743c80.007,9.145,142.346,76.926,142.346,158.93
	C339.145,373.493,267.001,445.266,178.325,445.266z M253.979,227.881c-10.091-8.656-46.344-36.899-89.139-36.899
	c-5.493,0-10.91,0.488-16.102,1.452c-40.891,7.586-76.033,45.168-85.143,75.636c-9.669,32.35,6.847,59.259,26.135,83.516
	c15.074,18.965,35.703,41.841,61.631,50.467c7.828,2.604,15.977,3.924,24.222,3.924c18.916,0,36.715-6.995,50.12-19.696
	c13.689-12.971,22.85-31.662,30.931-48.153c3.228-6.587,6.276-12.808,9.127-17.541c3.769-6.26,7.457-10.371,10.712-13.998
	c5.166-5.757,10.045-11.194,10.732-20.708C288.177,272.448,279.957,250.157,253.979,227.881z M269.747,284.623
	c-0.244,3.37-1.81,5.272-6.302,10.278c-3.588,3.999-8.054,8.976-12.679,16.66c-3.239,5.379-6.45,11.93-9.849,18.866
	c-7.432,15.163-15.854,32.349-27.253,43.15c-10.139,9.607-23.664,14.897-38.082,14.897c-6.364,0-12.653-1.02-18.696-3.029
	c-21.552-7.17-39.888-27.681-53.456-44.751c-18.877-23.742-30.024-44.327-23.065-67.61c7.668-25.647,38.254-57.259,71.565-63.439
	c4.141-0.768,8.484-1.157,12.909-1.157c29.229,0,59.325,16.882,77.744,32.683C265.109,260.483,270.257,277.571,269.747,284.623z"/>
</svg>