<?xml version="1.0" encoding="iso-8859-1"?>
<!-- Uploaded to: SVG Repo, www.svgrepo.com, Generator: SVG Repo Mixer Tools -->
<svg height="800px" width="800px" version="1.1" id="Layer_1" xmlns="http://www.w3.org/2000/svg" xmlns:xlink="http://www.w3.org/1999/xlink" 
	 viewBox="0 0 512 512" xml:space="preserve">
<path style="fill:#263238;" d="M377.6,160c42,0,76.4,34,76.4,76v80c0,42-34.4,76-76.4,76H350v-24h27.6c28.8,0,52.4-23.2,52.4-52v-80
	c0-28.8-23.6-52-52.4-52H350v-24h4H377.6z"/>
<path style="fill:#FFFFFF;" d="M377.6,184c28.8,0,52.4,23.2,52.4,52v80c0,28.8-23.6,52-52.4,52H350v-2v-96l0,0v-86H377.6z"/>
<polygon style="fill:#37474F;" points="346,372 346,492 334,492 302,492 143.6,492 107.6,492 106,492 106,372 "/>
<path style="fill:#263238;" d="M225.6,82.4c67.6,0,122.4,29.6,123.6,57.6H102C103.2,112,158,82.4,225.6,82.4z"/>
<g>
	<path style="fill:#FFFFFF;" d="M301.6,316c-4,0-7.6-3.6-7.6-7.6c0-4.4,3.6-7.6,7.6-7.6l7.6,7.6C309.2,312.8,306,316,301.6,316z"/>
	<path style="fill:#FFFFFF;" d="M241.6,320.8l7.6,7.6c0,4.4-3.2,7.6-7.6,7.6c-4.4,0-7.6-3.6-7.6-7.6
		C234,324,237.6,320.8,241.6,320.8z"/>
</g>
<path style="fill:#37474F;" d="M241.6,20c0,8.8-7.2,16-16,16s-16-7.2-16-16s7.2-16,16-16C234.4,4,241.6,11.2,241.6,20z"/>
<g>
	<path style="fill:#FFFFFF;" d="M194,335.6c-4.4,0-7.6-3.6-7.6-7.6s3.6-7.6,7.6-7.6l7.6,7.6C201.6,332.4,198.4,335.6,194,335.6z"/>
	<path style="fill:#FFFFFF;" d="M148.8,308.4c0,4.4-3.6,7.6-7.6,7.6s-7.6-3.6-7.6-7.6c0-4.4,3.6-7.6,7.6-7.6L148.8,308.4z"/>
</g>
<path style="fill:#3E2723;" d="M194,335.6c4,0,7.6-3.6,7.6-7.6l-7.6-7.6c-4.4,0-7.6,3.6-7.6,7.6C186.4,332.4,190,335.6,194,335.6z
	 M234,328.4c0,4.4,3.6,7.6,7.6,7.6c4.4,0,7.6-3.6,7.6-7.6l-7.6-7.6C237.6,320.8,234,324,234,328.4z M294,308.4
	c0,4.4,3.6,7.6,7.6,7.6c4.4,0,7.6-3.6,7.6-7.6l-7.6-7.6C297.6,300.8,294,304.4,294,308.4z M133.6,308.4c0,4.4,3.6,7.6,7.6,7.6
	s7.6-3.6,7.6-7.6l-7.6-7.6C137.2,300.8,133.6,304.4,133.6,308.4z M107.6,268c0,0,11.2,4,15.2,4c6.4,0,14.4-4,23.2-4l0,0
	c3.2,0,6,0,9.2,0c5.2,0,8.4,0,12.8,0c8,4,11.2,6.8,24,6.8s16-2.8,24.4-6.8c6.4,0,13.2,0,20,0c8,4,11.6,6.8,24.4,6.8
	c12.8,0,16.4-2.8,24.4-6.8c6.8,0,13.6,0,19.6,0c7.6,4,10,8.8,25.2,8.8l0,0c4.4-0.4,7.6-2,11.2-3.2l0,0c5.6-1.6,8.8-3.2,8.8-3.2V364
	H102v-96H107.6z M201.6,296.4L201.6,296.4L201.6,296.4L201.6,296.4z"/>
<path style="fill:#263238;" d="M107.6,492h36H302h32h12h4h5.6c4.4,0,6.4,3.6,6.4,8l0,0c0,4.4-1.6,8-6.4,8h-260c-4.4,0-9.6-3.6-9.6-8
	l0,0c0-4.4,5.2-8,9.6-8h6.4h4H107.6z"/>
<path style="fill:#455A64;" d="M102,140h247.6c0,0,0,4,0,0l0,0l4.4,7.2v13.6c-1.2,0.8-2.4-0.4-4-0.4H226H102c-1.6,0-2.8,1.2-4,0.8
	v-13.6l3.2-6L102,140C102,144,102,140,102,140z"/>
<polygon style="fill:#263238;" points="102,160 102,226 58,160 98,160 "/>
<path d="M378,396h-28c-2.4,0-4-1.6-4-4s1.6-4,4-4h28c40,0,72-32.4,72-72v-80c0-39.6-32.4-72-72-72h-28c-2.4,0-4-1.6-4-4s1.6-4,4-4
	h28c44.4,0,80,36,80,80v80C458,360,422,396,378,396z"/>
<path d="M378,372h-28c-2.4,0-4-1.6-4-4s1.6-4,4-4h28c26.4,0,48-21.6,48-48v-80c0-26.4-21.6-48-48-48h-28c-2.4,0-4-1.6-4-4s1.6-4,4-4
	h28c30.8,0,56,25.2,56,56v80C434,346.8,408.8,372,378,372z"/>
<path d="M356,512H96c-6.4,0-13.6-5.2-13.6-12c0-7.2,7.2-12,13.6-12h206.4c2.4,0,4,1.6,4,4s-1.6,4-4,4H96c-2.4,0-5.6,2-5.6,4
	s3.2,4,5.6,4h260c0.8,0,2,0,2-4s-1.6-4-2-4h-22c-2.4,0-4-1.6-4-4s1.6-4,4-4h22c6,0,10,4.8,10,12S362,512,356,512z"/>
<path d="M350,496c-2.4,0-4-1.6-4-4V164H106v328c0,2.4-1.6,4-4,4s-4-1.6-4-4V160c0-2.4,1.6-4,4-4h248c2.4,0,4,1.6,4,4v332
	C354,494.4,352.4,496,350,496z"/>
<path d="M349.6,146.8c-2.4,0-4-1.6-4-4c0-0.4,0-0.4,0-0.8c-1.2-30-54.8-54-119.6-54s-118.8,24-119.6,53.6c0,0.4,0,0.8,0,0.8
	c0,2.4-1.6,4-4,4s-4-1.6-4-4c0-0.4,0-0.8,0-1.6c1.2-34,57.2-61.2,127.6-61.2s126.4,26.8,127.6,61.2c0,0.4,0,0.8,0,1.2
	C353.6,145.2,351.6,146.8,349.6,146.8z"/>
<path d="M350,372H102c-2.4,0-4-1.6-4-4s1.6-4,4-4h248c2.4,0,4,1.6,4,4S352.4,372,350,372z"/>
<path d="M226,88.4C225.6,88.4,225.6,88.4,226,88.4c-2.4,0-4-2-4-4V38c0-2.4,1.6-4,4-4l0,0c2.4,0,4,2,4,4v46.4
	C229.6,86.4,228,88.4,226,88.4z"/>
<path d="M226.4,272.8c-2.4,0-4-1.6-4-4L222,162c0-2.4,1.6-4,4-4l0,0c2.4,0,4,1.6,4,4l0.4,106.8C230.4,270.8,228.4,272.8,226.4,272.8
	L226.4,272.8z"/>
<path d="M226,40c-11.2,0-20-8.8-20-20s8.8-20,20-20s20,8.8,20,20S236.8,40,226,40z M226,8c-6.8,0-12,5.2-12,12s5.6,12,12,12
	c6.8,0,12-5.2,12-12S232.4,8,226,8z"/>
<path d="M302,148H102c-2.4,0-4-1.6-4-4s1.6-4,4-4h200c2.4,0,4,1.6,4,4S304.4,148,302,148z"/>
<path d="M350,148h-16c-2.4,0-4-1.6-4-4s1.6-4,4-4h16c2.4,0,4,1.6,4,4S352.4,148,350,148z"/>
<path d="M103.2,164c-2,0-4.4,0-6.4-1.6c-3.2-2-6.4-6-6.4-10.4c0-4,2-7.6,5.6-10c2-1.2,5.2-2,7.2-2c2.4,0,4,1.6,4,4s-1.6,4-4,4
	c-0.8,0-2.4,0.4-2.8,0.8c-0.4,0.4-2,1.6-2,3.2c0,1.2,1.2,2.8,2.8,3.6c0.4,0,1.6,0,2.4,0v4L103.2,164L103.2,164z"/>
<path d="M348.4,164.4c-2.4,0-4-1.6-4-4s1.6-4,4-4c0.8,0,2-0.4,2.4-0.4c1.6-1.2,2.8-2.8,2.8-4c0-1.6-0.8-2.8-2-3.6
	c-0.4-0.4-2.4-0.4-3.6-0.4c-2.4,0-4-1.6-4-4s1.6-4,4-4c1.2,0,5.6,0.4,8,2c3.2,2,5.6,6.4,5.6,10.4c0,4.4-3.2,8.4-6.4,10.4
	C353.2,164,350,164.4,348.4,164.4z"/>
<path d="M330,280.8c-11.2,0-16.4-2.4-20.8-4.8c-2-0.8-3.6-1.6-5.6-2.4c-2.4-0.8-5.2-1.2-8.4-1.2s-6.4,0.4-9.2,1.2
	c-2.4,0.8-4.4,1.6-6.8,2.4c-4.4,2-9.6,4.4-18.8,4.4c-9.6,0-14.4-2.4-18.8-4.4c-2-0.8-4-2-6.4-2.4c-2.8-0.8-5.6-1.2-8.8-1.2
	s-6.4,0.4-8.8,1.2c-2.4,0.8-4.4,1.6-6.4,2.4c-4.4,2-9.2,4.4-18.8,4.4S178,278,173.6,276c-2-0.8-4-2-6.4-2.4
	c-1.6-0.4-2.4-0.8-3.6-1.2c-1.2-0.4-2-0.8-4-1.6c-4-1.2-7.2-0.8-12,0.8h-0.4c-2.4,0.8-4,2-6,2.8c-4,2.4-8.4,4.8-17.2,4.8
	c-9.6,0-14.4-2-18.8-4c-0.8-0.4-2-0.8-2.8-1.2c-2-0.8-3.2-3.2-2.4-5.2s3.2-3.2,5.2-2.4c1.2,0.4,2,0.8,3.2,1.2
	c4.4,2,7.6,3.2,15.6,3.2c6.8,0,9.6-1.6,13.2-3.6c2-1.2,4.4-2.4,7.2-3.6c0,0,0,0,0.4,0c6-2.4,11.2-2.4,16.4-1.2c2.4,0.8,4,1.2,5.2,2
	c0.8,0.4,1.6,0.8,2.4,0.8c3.2,0.8,5.6,2,7.6,3.2c4,2,7.6,3.6,15.2,3.6c7.6,0,11.2-1.6,15.6-3.6c2.4-1.2,4.8-2,7.6-3.2
	c3.2-0.8,6.8-1.2,11.2-1.2c4,0,7.6,0.4,11.2,1.2c3.2,0.8,5.6,2,7.6,3.2c4.4,2,8,3.6,15.6,3.6s11.2-1.6,15.6-3.6c2.4-1.2,4.8-2,8-3.2
	c3.2-0.8,6.8-1.2,11.2-1.2c4,0,7.6,0.4,10.8,1.2c2.8,0.8,4.8,2,6.8,2.8c4,2,7.6,3.6,16.4,4h0.4c3.6-0.4,6.8-1.6,10-3.2h0.4
	c2.8-1.2,5.6-2.4,9.2-3.6c2-0.4,4.4,0.8,4.8,2.8s-0.8,4.4-2.8,4.8c-2.8,0.8-5.6,2-8,3.2l0,0c0,0-0.4,0-0.4,0.4
	c-3.2,1.6-6.8,2.8-11.2,3.6C330.8,280.4,330.4,280.8,330,280.8z"/>
<path d="M241.6,340c-6.4,0-11.6-5.2-11.6-11.6s5.2-11.6,11.6-11.6c2.4,0,4,1.6,4,4s-1.6,4-4,4c-2,0-3.6,1.6-3.6,3.6s1.6,3.6,3.6,3.6
	s3.6-1.6,3.6-3.6c0-2.4,1.6-4,4-4s4,1.6,4,4C253.2,334.8,248,340,241.6,340z"/>
<path d="M301.6,320c-6.4,0-11.6-5.2-11.6-11.6s5.2-11.6,11.6-11.6c2.4,0,4,1.6,4,4s-1.6,4-4,4c-2,0-3.6,1.6-3.6,3.6s1.6,3.6,3.6,3.6
	s3.6-1.6,3.6-3.6c0-2.4,1.6-4,4-4s4,1.6,4,4C313.2,314.8,308,320,301.6,320z"/>
<path d="M194,339.6c-6.4,0-11.6-5.2-11.6-11.6s5.2-11.6,11.6-11.6c2.4,0,4,1.6,4,4s-1.6,4-4,4c-2,0-3.6,1.6-3.6,3.6s1.6,3.6,3.6,3.6
	s3.6-1.6,3.6-3.6c0-2.4,1.6-4,4-4s4,1.6,4,4C205.6,334.4,200.4,339.6,194,339.6z"/>
<path d="M141.2,320c-6.4,0-11.6-5.2-11.6-11.6s5.2-11.6,11.6-11.6c2.4,0,4,1.6,4,4s-1.6,4-4,4c-2,0-3.6,1.6-3.6,3.6s1.6,3.6,3.6,3.6
	s3.6-1.6,3.6-3.6c0-2.4,1.6-4,4-4s4,1.6,4,4C152.8,314.8,147.6,320,141.2,320z"/>
<path d="M201.6,300.4c-1.2,0-2-0.4-2.8-1.2c-1.2-1.2-1.6-2.8-0.8-4.4s2-2.4,3.6-2.4l0,0c2.4,0,4,1.6,4,4c0,1.6-0.8,3.2-2.4,3.6
	C202.8,300.4,202.4,300.4,201.6,300.4z"/>
<path d="M150.4,348.4c-2.4,0-4-1.6-4-4c0-1.6,0.8-2.8,2.4-3.6c0.4-0.4,1.2-0.4,1.6-0.4c2.4,0,4,1.6,4,4l0,0
	C154.4,346.4,152.4,348.4,150.4,348.4z"/>
<path d="M102,164H58c-2.4,0-4-1.6-4-4s1.6-4,4-4h44c2.4,0,4,1.6,4,4S104.4,164,102,164z"/>
<path d="M102,233.6c-1.2,0-2.4-0.8-3.2-2l-44-67.6c-1.2-2-0.8-4.4,1.2-5.6s4.4-0.8,5.6,1.2l44,67.6c1.2,2,0.8,4.4-1.2,5.6
	C103.6,233.2,102.8,233.6,102,233.6z"/>
</svg>