<?xml version="1.0" encoding="utf-8"?>
<!-- Uploaded to: SVG Repo, www.svgrepo.com, Generator: SVG Repo Mixer Tools -->
<svg width="800px" height="800px" viewBox="0 0 1024 1024" class="icon"  version="1.1" xmlns="http://www.w3.org/2000/svg"><path d="M95 548.3h834v128H95z" fill="#2CC4FE" /><path d="M929 680.3H95c-2.2 0-4-1.8-4-4v-128c0-2.2 1.8-4 4-4h834c2.2 0 4 1.8 4 4v128c0 2.2-1.8 4-4 4z m-830-8h826v-120H99v120z" fill="#515151" /><path d="M929 548.3H95l353.1-256h128z" fill="#A1E4FD" /><path d="M929 552.3H95c-1.7 0-3.3-1.1-3.8-2.8-0.5-1.6 0.1-3.5 1.5-4.5l353.1-256c0.7-0.5 1.5-0.8 2.3-0.8h128c0.8 0 1.7 0.3 2.3 0.8l352.9 256c1.4 1 2 2.8 1.5 4.5-0.5 1.6-2.1 2.8-3.8 2.8z m-821.7-8h809.3l-341.9-248H449.4l-342.1 248z" fill="#515151" /><path d="M448.1 100.3h128v192h-128z" fill="#2CC4FE" /><path d="M576.1 296.3h-128c-2.2 0-4-1.8-4-4v-192c0-2.2 1.8-4 4-4h128c2.2 0 4 1.8 4 4v192c0 2.2-1.8 4-4 4z m-124-8h120v-184h-120v184z" fill="#515151" /><path d="M768 676v-34" fill="#2CC4FE" /><path d="M768 680c-2.2 0-4-1.8-4-4v-34c0-2.2 1.8-4 4-4s4 1.8 4 4v34c0 2.2-1.8 4-4 4z" fill="#515151" /><path d="M704 676v-34" fill="#2CC4FE" /><path d="M704 680c-2.2 0-4-1.8-4-4v-34c0-2.2 1.8-4 4-4s4 1.8 4 4v34c0 2.2-1.8 4-4 4z" fill="#515151" /><path d="M832 676v-34" fill="#2CC4FE" /><path d="M832 680c-2.2 0-4-1.8-4-4v-34c0-2.2 1.8-4 4-4s4 1.8 4 4v34c0 2.2-1.8 4-4 4z" fill="#515151" /><path d="M289 927.8c-0.9 0-1.9-0.3-2.6-1-1.7-1.5-1.8-4-0.3-5.6 38.2-43.3 29.6-57.8 8.9-92.8-3.2-5.4-6.8-11.5-10.5-18.1-8.4-15.2-10.6-30-6.5-43.9 7.2-24.2 30.8-37 31.8-37.5 1.9-1 4.4-0.3 5.4 1.7s0.3 4.4-1.7 5.4c-0.4 0.2-21.7 11.9-27.9 32.8-3.5 11.8-1.5 24.5 5.8 37.7 3.6 6.5 7.1 12.3 10.4 17.9 10.9 18.4 18.8 31.6 18.8 47 0.1 15.9-8.5 32.4-28.6 55.2-0.8 0.7-1.9 1.2-3 1.2zM495 927.8c-0.9 0-1.9-0.3-2.6-1-1.7-1.5-1.8-4-0.3-5.6 38.2-43.3 29.6-57.8 8.9-92.8-3.2-5.4-6.8-11.5-10.5-18.1-8.4-15.2-10.6-30-6.5-43.9 7.2-24.2 30.8-37 31.8-37.5 2-1 4.4-0.3 5.4 1.7s0.3 4.4-1.7 5.4c-0.4 0.2-21.7 11.9-27.9 32.8-3.5 11.8-1.5 24.5 5.8 37.7 3.6 6.5 7.1 12.3 10.4 17.9 10.9 18.4 18.8 31.6 18.8 47 0.1 15.9-8.5 32.4-28.6 55.2-0.8 0.7-1.9 1.2-3 1.2zM676 927.8c-0.9 0-1.9-0.3-2.6-1-1.7-1.5-1.8-4-0.3-5.6 38.2-43.3 29.6-57.8 8.9-92.8-3.2-5.4-6.8-11.5-10.5-18.1-8.4-15.2-10.6-30-6.5-43.9 7.2-24.2 30.8-37 31.8-37.5 2-1 4.4-0.3 5.4 1.7s0.3 4.4-1.7 5.4c-0.3 0.2-21.7 11.8-27.9 32.8-3.5 11.8-1.5 24.5 5.8 37.7 3.6 6.5 7.1 12.3 10.4 17.9 10.9 18.4 18.8 31.6 18.8 47 0.1 15.9-8.5 32.4-28.6 55.2-0.8 0.7-1.9 1.2-3 1.2z" fill="#515151" /></svg>